<?xml version="1.0" encoding="utf-8"?>
<!-- Generator: Adobe Illustrator 28.1.0, SVG Export Plug-In . SVG Version: 6.00 Build 0)  -->
<svg version="1.1" id="Layer_1" xmlns="http://www.w3.org/2000/svg" xmlns:xlink="http://www.w3.org/1999/xlink" x="0px" y="0px"
	 viewBox="0 0 499 25.5" style="enable-background:new 0 0 499 25.5;" xml:space="preserve">
<style type="text/css">
	.st0{stroke:#000000;stroke-width:2;stroke-miterlimit:10;}
</style>
<path class="st0" d="M497.3,16.5c-0.2-0.7-1.4-1.2-2.8-1c-47,2.8-172.2,7-336.6,5.4c111.7-3,195-8.8,227-11.8c1.4-0.1,2.2-0.7,2-1.4
	c-0.3-0.7-1.6-1.1-2.9-0.9c-0.2,0-0.4,0-0.5,0.1c-0.1,0-0.2,0-0.4,0C332.4,8.4,187.9,9.5,4.2,1.5C2.8,1.4,1.6,1.9,1.5,2.6
	s0.9,1.2,2.3,1.3c113.5,4.9,212.1,6.4,283,6.4c20.6,0,38.8-0.1,54.4-0.3c-53.1,3.6-139.8,8-244.9,9.7c-0.7,0-1.2,0.1-1.7,0.4
	c-0.7,0.2-1.2,0.6-1.3,1c-0.1,0.7,1,1.2,2.4,1.2c48,0.9,93.3,1.2,135.2,1.2c128.4,0,224.4-3.4,264.3-5.7
	C496.5,17.7,497.5,17.1,497.3,16.5z"/>
</svg>
